<?xml version="1.0" encoding="utf-8"?>
<!-- Generator: Adobe Illustrator 23.0.3, SVG Export Plug-In . SVG Version: 6.00 Build 0)  -->
<svg version="1.1" id="Layer_1" xmlns="http://www.w3.org/2000/svg" xmlns:xlink="http://www.w3.org/1999/xlink" x="0px" y="0px"
	 viewBox="0 0 56.7 56.7" style="enable-background:new 0 0 56.7 56.7;" xml:space="preserve">
<style type="text/css">
	.st0{fill:#FFFFFF;}
</style>
<path class="st0" d="M39.3,24.4c0-1.2-1-2.2-2.3-2.2H13.7c-1.2,0-2.3,1-2.3,2.2c0,1.2,1,2.2,2.3,2.2H37
	C38.2,26.6,39.3,25.6,39.3,24.4z"/>
<path class="st0" d="M13.7,31c-1.2,0-2.3,1-2.3,2.2c0,1.2,1,2.2,2.3,2.2h14.2c1.2,0,2.3-1,2.3-2.2c0-1.2-1-2.2-2.3-2.2H13.7z"/>
<path class="st0" d="M19,52.3h-7.6c-2.5,0-4.5-2-4.5-4.4v-39c0-2.4,2-4.4,4.5-4.4h27.8c2.5,0,4.5,2,4.5,4.4v13.6
	c0,1.2,1,2.2,2.3,2.2s2.3-1,2.3-2.2V8.9C48.3,4,44.3,0,39.3,0H11.4c-5,0-9.1,4-9.1,8.9v39c0,4.9,4.1,8.9,9.1,8.9H19
	c1.2,0,2.3-1,2.3-2.2S20.3,52.3,19,52.3z"/>
<path class="st0" d="M52.3,32.1c-2.6-2.6-7-2.6-9.6,0L30.3,44.2c-0.3,0.3-0.5,0.6-0.6,0.9L27,53.8c-0.2,0.8,0,1.6,0.5,2.2
	c0.4,0.4,1,0.7,1.6,0.7c0.2,0,0.4,0,0.6-0.1l9.1-2.5c0.4-0.1,0.7-0.3,1-0.6l12.4-12.1C55,38.9,55,34.7,52.3,32.1z M37.1,50l-4.6,1.2
	l1.3-4.3l8.4-8.2l3.2,3.1L37.1,50z M49.1,38.3l-0.4,0.4l-3.2-3.1l0.4-0.4c0.9-0.9,2.3-0.9,3.2,0C50,36.1,50,37.5,49.1,38.3z"/>
<path class="st0" d="M37,13.3H13.7c-1.2,0-2.3,1-2.3,2.2s1,2.2,2.3,2.2H37c1.2,0,2.3-1,2.3-2.2S38.2,13.3,37,13.3z"/>
</svg>
