<?xml version="1.0" encoding="utf-8"?>
<!-- Generator: Adobe Illustrator 23.0.3, SVG Export Plug-In . SVG Version: 6.00 Build 0)  -->
<svg version="1.1" id="Layer_1" xmlns="http://www.w3.org/2000/svg" xmlns:xlink="http://www.w3.org/1999/xlink" x="0px" y="0px"
	 viewBox="0 0 56.7 56.7" style="enable-background:new 0 0 56.7 56.7;" xml:space="preserve">
<style type="text/css">
	.st0{clip-path:url(#SVGID_2_);}
	.st1{fill:#FFFFFF;}
</style>
<g>
	<defs>
		<rect id="SVGID_1_" x="0" y="0" width="56.7" height="56.7"/>
	</defs>
	<clipPath id="SVGID_2_">
		<use xlink:href="#SVGID_1_"  style="overflow:visible;"/>
	</clipPath>
	<g class="st0">
		<path class="st1" d="M46.6,17.5c-0.8,0-1.6,0.2-2.3,0.5c-0.8-2.1-2.9-3.6-5.3-3.6c-0.9,0-1.7,0.2-2.5,0.6c-1-1.8-2.9-3.1-5.1-3.1
			c-0.6,0-1.3,0.1-1.9,0.3V5.8c0-3.2-2.6-5.8-5.7-5.8c-3.2,0-5.7,2.6-5.7,5.8v22.8L14,23.9c0,0-0.1-0.1-0.1-0.1
			c-1.1-1.1-2.5-1.7-4.1-1.7c0,0,0,0,0,0c-1.5,0-3,0.6-4,1.7c-1.9,1.9-2,4.7-0.3,7.7c2.2,3.9,4.6,7.6,6.7,10.8
			c1.6,2.4,3,4.6,4.1,6.4c0.9,1.6,3.4,6.8,3.4,6.9c0.3,0.7,1,1.1,1.7,1.1H46c0.8,0,1.6-0.5,1.8-1.3c0.5-1.4,4.5-14,4.5-18.9V23.3
			C52.4,20.1,49.8,17.5,46.6,17.5z M44.8,23.3c0-1,0.8-1.9,1.9-1.9c1,0,1.9,0.8,1.9,1.9v13.2c0,3.2-2.5,11.9-3.9,16.3H22.8
			c-0.8-1.7-2.3-4.8-3-6c-1.1-1.9-2.6-4.2-4.2-6.6c-2.1-3.2-4.5-6.8-6.6-10.6c-0.6-1-1.1-2.3-0.3-3.1C8.9,26.2,9.4,26,9.9,26
			c0.5,0,0.9,0.2,1.3,0.5l7.5,8.5c0.5,0.6,1.4,0.8,2.1,0.5c0.8-0.3,1.3-1,1.3-1.8v-28c0-1,0.8-1.9,1.9-1.9c1,0,1.9,0.8,1.9,1.9v18.1
			c0,1.1,0.9,1.9,1.9,1.9c1.1,0,1.9-0.9,1.9-1.9v-6.3c0-1,0.8-1.9,1.9-1.9c1,0,1.9,0.8,1.9,1.9v8.8c0,1.1,0.9,1.9,1.9,1.9
			c1.1,0,1.9-0.9,1.9-1.9v-6.3c0-1,0.8-1.9,1.9-1.9c1,0,1.9,0.8,1.9,1.9v8.8c0,1.1,0.9,1.9,1.9,1.9c1.1,0,1.9-0.9,1.9-1.9L44.8,23.3
			L44.8,23.3z"/>
	</g>
</g>
</svg>
