<?xml version="1.0" encoding="utf-8"?>
<!-- Generator: Adobe Illustrator 23.0.3, SVG Export Plug-In . SVG Version: 6.00 Build 0)  -->
<svg version="1.1" id="Layer_1" xmlns="http://www.w3.org/2000/svg" xmlns:xlink="http://www.w3.org/1999/xlink" x="0px" y="0px"
	 viewBox="0 0 56.7 56.7" style="enable-background:new 0 0 56.7 56.7;" xml:space="preserve">
<style type="text/css">
	.st0{clip-path:url(#SVGID_2_);}
	.st1{fill:#FFFFFF;}
</style>
<g>
	<defs>
		<rect id="SVGID_1_" x="0" y="0" width="56.7" height="56.7"/>
	</defs>
	<clipPath id="SVGID_2_">
		<use xlink:href="#SVGID_1_"  style="overflow:visible;"/>
	</clipPath>
	<g class="st0">
		<path class="st1" d="M56.3,22.7l-6.5-9.2c-0.3-0.4-0.8-0.7-1.4-0.7H37v-1.3c0-0.9-0.8-1.7-1.7-1.7H1.6c-0.9,0-1.7,0.8-1.7,1.7
			v28.4c0,0.9,0.8,1.7,1.7,1.7h3.2c0.5,3.1,3.3,5.5,6.4,5.5c3.2,0,5.9-2.4,6.4-5.5h20.9c0.5,3.1,3.3,5.5,6.4,5.5
			c3.2,0,5.9-2.4,6.4-5.5h3.4c0.9,0,1.7-0.8,1.7-1.7V23.7C56.6,23.3,56.5,23,56.3,22.7z M53.2,26.7h-8.4v-4.8h6.6c0,0,0.1,0,0.1,0
			l1.7,2.3V26.7z M3.3,13.1h30.3v25H17.4c-1-2.9-4.1-4.8-7.2-4.3c-2.4,0.4-4.4,2-5.2,4.3H3.3V13.1z M11.3,43.6
			c-1.9,0-3.4-1.8-3.1-3.7c0.2-1.5,1.6-2.7,3.1-2.7c1.6,0,2.9,1.2,3.1,2.7C14.7,41.7,13.2,43.6,11.3,43.6z M45.1,43.6
			c-2,0-3.4-1.8-3.1-3.7c0.2-1.5,1.6-2.7,3.1-2.7c1.6,0,2.9,1.2,3.1,2.7C48.5,41.7,47,43.6,45.1,43.6z M51.3,38.1
			c-0.9-2.6-3.4-4.4-6.2-4.4c-2.8,0-5.3,1.8-6.2,4.4H37v-22h10.5l1.7,2.3h-6c-0.9,0-1.7,0.8-1.7,1.7v8.2c0,0.9,0.8,1.7,1.7,1.7h10v8
			H51.3z"/>
	</g>
</g>
</svg>
