<?xml version="1.0" encoding="utf-8"?>
<!-- Generator: Adobe Illustrator 23.0.3, SVG Export Plug-In . SVG Version: 6.00 Build 0)  -->
<svg version="1.1" id="Layer_1" xmlns="http://www.w3.org/2000/svg" xmlns:xlink="http://www.w3.org/1999/xlink" x="0px" y="0px"
	 viewBox="0 0 56.7 56.7" style="enable-background:new 0 0 56.7 56.7;" xml:space="preserve">
<style type="text/css">
	.st0{fill:none;stroke:#FFFFFF;stroke-width:3;}
	.st1{fill:#FFFFFF;}
</style>
<g>
	<path class="st0" d="M33.3,21.9v2h2h6.8c0.3,0,0.6,0.2,0.7,0.5c0.1,0.3,0.1,0.6-0.2,0.8c0,0,0,0,0,0L27.1,40.9l0,0
		c-0.1,0.1-0.3,0.2-0.5,0.2c-0.2,0-0.4-0.1-0.5-0.2l0,0L10.4,25.3c0,0,0,0,0,0c-0.2-0.2-0.3-0.5-0.2-0.8c0.1-0.3,0.4-0.5,0.7-0.5
		h6.8h2v-2V1.6c0-0.9,0.8-1.7,1.7-1.7h10.2c0.9,0,1.7,0.8,1.7,1.7V21.9z"/>
	<rect x="1.8" y="52.7" class="st1" width="53.1" height="4.1"/>
</g>
</svg>
